<svg xmlns="http://www.w3.org/2000/svg" width="24" height="24" viewBox="0 0 24 24" fill="none" stroke="currentColor" stroke-width="2" stroke-linecap="round" stroke-linejoin="round">
  <path d="M12.89 1.45 8 4.05v3.9L3.11 4l-.78 1.36 4.89 2.83v6.62L3.11 12l-.78 1.36 5.78 3.34v3.9l4.89 2.83.78-1.36-4.89-2.83v-6.62l4.89 2.83.78-1.36-4.89-2.83V4.05l4.89-2.83-.78-1.36z"/>
  <path d="m15.11 4-.78 1.36 4.89 2.83v6.62l-4.89-2.83-.78 1.36 4.89 2.83v3.9l-4.89 2.83.78 1.36 4.89-2.83 4.89 2.83.78-1.36-4.89-2.83v-3.9l4.89-2.83-.78-1.36-4.89 2.83V8.19l4.89-2.83L20.89 4l-4.89 2.83V4.05l-.78-.05z"/>
</svg>
